<svg xmlns="http://www.w3.org/2000/svg" xmlns:xlink="http://www.w3.org/1999/xlink" version="1.1" width="160" height="160" viewBox="0 0 256 256" xml:space="preserve">

<defs>
</defs>
  <g style="stroke: none; stroke-width: 0; stroke-dasharray: none; stroke-linecap: butt; stroke-linejoin: miter; stroke-miterlimit: 10; fill: none; fill-rule: nonzero; opacity: 1;" transform="translate(1.4065934065934016 1.4065934065934016) scale(2.81 2.81)" >
	<path d="M 15.536 69.047 c -0.079 0 -0.157 -0.009 -0.235 -0.028 C 8.321 67.332 0 64.276 0 59.295 V 18.739 C 0 10.434 23.185 5.953 45 5.953 c 21.814 0 45 4.481 45 12.786 c 0 4.799 -7.728 7.813 -14.536 9.535 v 39.773 c 0 0.553 -0.447 1 -1 1 s -1 -0.447 -1 -1 V 27.491 c 0 -0.462 0.316 -0.863 0.765 -0.972 C 82.724 24.465 88 21.484 88 18.739 c 0 -5.102 -17.659 -10.786 -43 -10.786 c -25.34 0 -43 5.684 -43 10.786 c 0 2.746 5.276 5.727 13.771 7.78 c 0.449 0.109 0.765 0.51 0.765 0.972 v 40.556 c 0 0.307 -0.141 0.596 -0.381 0.786 C 15.976 68.973 15.758 69.047 15.536 69.047 z M 2 22.73 v 36.565 c 0 2.611 4.768 5.434 12.536 7.469 v -38.49 C 9.855 27.089 4.74 25.295 2 22.73 z" style="stroke: none; stroke-width: 1; stroke-dasharray: none; stroke-linecap: butt; stroke-linejoin: miter; stroke-miterlimit: 10; fill: rgb(0,0,0); fill-rule: nonzero; opacity: 1;" transform=" matrix(1 0 0 1 0 0) " stroke-linecap="round" />
    <path d="M 15.535 51.542 c -0.451 0 -0.86 -0.308 -0.971 -0.766 c -0.129 -0.536 0.201 -1.077 0.737 -1.206 c 4.847 -1.171 10.681 -2.055 16.874 -2.556 c 0.554 -0.041 1.033 0.366 1.077 0.916 c 0.044 0.551 -0.366 1.033 -0.916 1.078 c -6.09 0.492 -11.818 1.358 -16.565 2.505 C 15.691 51.533 15.613 51.542 15.535 51.542 z" style="stroke: none; stroke-width: 1; stroke-dasharray: none; stroke-linecap: butt; stroke-linejoin: miter; stroke-miterlimit: 10; fill: rgb(0,0,0); fill-rule: nonzero; opacity: 1;" transform=" matrix(1 0 0 1 0 0) " stroke-linecap="round" />
    <path d="M 74.466 51.542 c -0.078 0 -0.157 -0.009 -0.235 -0.028 c -4.748 -1.146 -10.476 -2.013 -16.566 -2.505 c -0.55 -0.045 -0.96 -0.527 -0.916 -1.078 c 0.046 -0.55 0.52 -0.95 1.078 -0.916 c 6.191 0.501 12.026 1.385 16.873 2.556 c 0.537 0.129 0.867 0.67 0.737 1.206 C 75.326 51.234 74.917 51.542 74.466 51.542 z" style="stroke: none; stroke-width: 1; stroke-dasharray: none; stroke-linecap: butt; stroke-linejoin: miter; stroke-miterlimit: 10; fill: rgb(0,0,0); fill-rule: nonzero; opacity: 1;" transform=" matrix(1 0 0 1 0 0) " stroke-linecap="round" />
    <path d="M 74.463 69.047 c -0.451 0 -0.86 -0.308 -0.971 -0.766 c -0.13 -0.536 0.2 -1.077 0.737 -1.206 C 82.724 65.022 88 62.042 88 59.295 V 18.739 c 0 -0.552 0.447 -1 1 -1 s 1 0.448 1 1 v 40.556 c 0 4.981 -8.321 8.037 -15.302 9.724 C 74.62 69.038 74.541 69.047 74.463 69.047 z" style="stroke: none; stroke-width: 1; stroke-dasharray: none; stroke-linecap: butt; stroke-linejoin: miter; stroke-miterlimit: 10; fill: rgb(0,0,0); fill-rule: nonzero; opacity: 1;" transform=" matrix(1 0 0 1 0 0) " stroke-linecap="round" />
    <path d="M 12.746 20.095 c -0.427 0 -0.822 -0.275 -0.955 -0.705 c -0.164 -0.528 0.132 -1.088 0.659 -1.251 c 4.476 -1.386 10.148 -2.492 16.405 -3.198 c 0.544 -0.061 1.044 0.332 1.106 0.881 c 0.062 0.549 -0.333 1.044 -0.881 1.106 C 22.946 17.62 17.4 18.7 13.042 20.049 C 12.943 20.081 12.844 20.095 12.746 20.095 z" style="stroke: none; stroke-width: 1; stroke-dasharray: none; stroke-linecap: butt; stroke-linejoin: miter; stroke-miterlimit: 10; fill: rgb(0,0,0); fill-rule: nonzero; opacity: 1;" transform=" matrix(1 0 0 1 0 0) " stroke-linecap="round" />
    <path d="M 77.772 20.095 c -0.098 0 -0.197 -0.015 -0.296 -0.045 c -1.478 -0.458 -3.105 -0.889 -4.839 -1.281 c -0.539 -0.122 -0.877 -0.657 -0.755 -1.196 s 0.658 -0.88 1.196 -0.754 c 1.784 0.404 3.462 0.848 4.989 1.321 c 0.527 0.163 0.822 0.723 0.659 1.251 C 78.595 19.82 78.199 20.095 77.772 20.095 z" style="stroke: none; stroke-width: 1; stroke-dasharray: none; stroke-linecap: butt; stroke-linejoin: miter; stroke-miterlimit: 10; fill: rgb(0,0,0); fill-rule: nonzero; opacity: 1;" transform=" matrix(1 0 0 1 0 0) " stroke-linecap="round" />
    <path d="M 68.448 26.788 c -0.058 0 -0.114 -0.005 -0.172 -0.015 c -2.164 -0.377 -4.464 -0.705 -6.837 -0.973 c -0.506 -0.057 -0.888 -0.485 -0.888 -0.994 v -8.872 c 0 -0.285 0.121 -0.556 0.334 -0.746 c 0.212 -0.189 0.5 -0.281 0.778 -0.248 c 2.418 0.273 4.758 0.606 6.956 0.989 c 0.479 0.083 0.828 0.5 0.828 0.985 v 8.872 c 0 0.295 -0.131 0.575 -0.356 0.766 C 68.91 26.706 68.682 26.788 68.448 26.788 z M 62.552 23.917 c 1.679 0.201 3.318 0.432 4.896 0.688 V 17.76 c -1.571 -0.26 -3.211 -0.495 -4.896 -0.7 V 23.917 z" style="stroke: none; stroke-width: 1; stroke-dasharray: none; stroke-linecap: butt; stroke-linejoin: miter; stroke-miterlimit: 10; fill: rgb(0,0,0); fill-rule: nonzero; opacity: 1;" transform=" matrix(1 0 0 1 0 0) " stroke-linecap="round" />
    <path d="M 37.958 16.103 c -0.532 0 -0.975 -0.42 -0.998 -0.957 c -0.024 -0.552 0.404 -1.018 0.956 -1.042 c 4.388 -0.189 8.974 -0.2 13.369 -0.033 c 0.552 0.021 0.982 0.486 0.961 1.038 s -0.486 0.978 -1.037 0.961 c -4.341 -0.166 -8.872 -0.154 -13.207 0.032 C 37.987 16.103 37.973 16.103 37.958 16.103 z" style="stroke: none; stroke-width: 1; stroke-dasharray: none; stroke-linecap: butt; stroke-linejoin: miter; stroke-miterlimit: 10; fill: rgb(0,0,0); fill-rule: nonzero; opacity: 1;" transform=" matrix(1 0 0 1 0 0) " stroke-linecap="round" />
    <path d="M 22.071 29.788 c -0.233 0 -0.462 -0.082 -0.644 -0.234 c -0.226 -0.19 -0.356 -0.47 -0.356 -0.766 v -5.872 c 0 -0.486 0.35 -0.902 0.828 -0.985 c 2.198 -0.383 4.538 -0.716 6.956 -0.989 c 0.285 -0.035 0.566 0.059 0.778 0.248 s 0.334 0.461 0.334 0.746 v 5.872 c 0 0.509 -0.382 0.937 -0.888 0.994 c -2.372 0.268 -4.672 0.595 -6.837 0.973 C 22.186 29.783 22.128 29.788 22.071 29.788 z M 23.071 23.76 v 3.845 c 1.578 -0.256 3.218 -0.487 4.896 -0.688 V 23.06 C 26.282 23.265 24.642 23.5 23.071 23.76 z" style="stroke: none; stroke-width: 1; stroke-dasharray: none; stroke-linecap: butt; stroke-linejoin: miter; stroke-miterlimit: 10; fill: rgb(0,0,0); fill-rule: nonzero; opacity: 1;" transform=" matrix(1 0 0 1 0 0) " stroke-linecap="round" />
    <path d="M 56.035 55.306 H 33.964 c -1.494 0 -2.709 -1.216 -2.709 -2.71 v -6.129 c 0 -1.494 1.215 -2.71 2.709 -2.71 h 22.071 c 1.494 0 2.71 1.216 2.71 2.71 v 6.129 C 58.745 54.09 57.529 55.306 56.035 55.306 z M 33.964 45.757 c -0.391 0 -0.709 0.318 -0.709 0.71 v 6.129 c 0 0.392 0.318 0.71 0.709 0.71 h 22.071 c 0.392 0 0.71 -0.318 0.71 -0.71 v -6.129 c 0 -0.392 -0.318 -0.71 -0.71 -0.71 H 33.964 z" style="stroke: none; stroke-width: 1; stroke-dasharray: none; stroke-linecap: butt; stroke-linejoin: miter; stroke-miterlimit: 10; fill: rgb(0,0,0); fill-rule: nonzero; opacity: 1;" transform=" matrix(1 0 0 1 0 0) " stroke-linecap="round" />
    <path d="M 53.2 49.91 c -0.261 0 -0.511 -0.11 -0.7 -0.301 c -0.101 -0.09 -0.17 -0.199 -0.22 -0.319 c -0.051 -0.12 -0.08 -0.25 -0.08 -0.38 c 0 -0.271 0.109 -0.521 0.3 -0.71 c 0.37 -0.381 1.04 -0.37 1.41 0 c 0.09 0.09 0.17 0.199 0.22 0.319 c 0.05 0.13 0.07 0.25 0.07 0.391 c 0 0.27 -0.101 0.52 -0.29 0.699 C 53.72 49.8 53.47 49.91 53.2 49.91 z" style="stroke: none; stroke-width: 1; stroke-dasharray: none; stroke-linecap: butt; stroke-linejoin: miter; stroke-miterlimit: 10; fill: rgb(0,0,0); fill-rule: nonzero; opacity: 1;" transform=" matrix(1 0 0 1 0 0) " stroke-linecap="round" />
    <path d="M 48.945 49.906 H 36.794 c -0.552 0 -1 -0.447 -1 -1 s 0.448 -1 1 -1 h 12.151 c 0.553 0 1 0.447 1 1 S 49.498 49.906 48.945 49.906 z" style="stroke: none; stroke-width: 1; stroke-dasharray: none; stroke-linecap: butt; stroke-linejoin: miter; stroke-miterlimit: 10; fill: rgb(0,0,0); fill-rule: nonzero; opacity: 1;" transform=" matrix(1 0 0 1 0 0) " stroke-linecap="round" />
    <path d="M 63.527 84.202 H 26.473 c -0.552 0 -1 -0.447 -1 -1 V 69.868 c 0 -3.162 2.258 -5.87 5.369 -6.438 l 5.001 -0.914 c 1.461 -0.268 2.521 -1.54 2.521 -3.025 v -1.063 c 0 -0.553 0.448 -1 1 -1 s 1 0.447 1 1 v 1.063 c 0 2.451 -1.75 4.551 -4.162 4.992 L 31.2 65.397 c -2.161 0.396 -3.729 2.275 -3.729 4.472 v 12.334 h 35.054 V 69.868 c 0 -2.196 -1.568 -4.076 -3.729 -4.472 l -5.002 -0.914 c -2.412 -0.441 -4.162 -2.541 -4.162 -4.992 l -0.011 -1.004 c -0.006 -0.553 0.438 -1.005 0.989 -1.011 c 0.004 0 0.008 0 0.011 0 c 0.548 0 0.994 0.44 1 0.989 l 0.011 1.015 c 0 1.496 1.061 2.769 2.521 3.036 l 5.002 0.914 c 3.111 0.568 5.369 3.276 5.369 6.438 v 13.334 C 64.527 83.755 64.08 84.202 63.527 84.202 z" style="stroke: none; stroke-width: 1; stroke-dasharray: none; stroke-linecap: butt; stroke-linejoin: miter; stroke-miterlimit: 10; fill: rgb(0,0,0); fill-rule: nonzero; opacity: 1;" transform=" matrix(1 0 0 1 0 0) " stroke-linecap="round" />
    <path d="M 45 77.151 c -0.211 0 -0.422 -0.066 -0.6 -0.2 c -4.323 -3.245 -7.459 -7.662 -9.323 -13.13 c -0.178 -0.522 0.102 -1.091 0.624 -1.269 c 0.522 -0.182 1.091 0.102 1.269 0.624 c 1.644 4.821 4.343 8.757 8.03 11.709 c 3.688 -2.952 6.387 -6.888 8.03 -11.709 c 0.178 -0.522 0.747 -0.805 1.269 -0.624 c 0.523 0.178 0.803 0.746 0.624 1.269 c -1.862 5.467 -4.999 9.885 -9.323 13.13 C 45.422 77.085 45.211 77.151 45 77.151 z" style="stroke: none; stroke-width: 1; stroke-dasharray: none; stroke-linecap: butt; stroke-linejoin: miter; stroke-miterlimit: 10; fill: rgb(0,0,0); fill-rule: nonzero; opacity: 1;" transform=" matrix(1 0 0 1 0 0) " stroke-linecap="round" />
    <path d="M 33.868 84.202 c -0.552 0 -1 -0.447 -1 -1 v -3.777 c 0 -1.126 -0.48 -2.205 -1.316 -2.958 l -5.748 -5.18 c -0.41 -0.37 -0.443 -1.002 -0.073 -1.413 c 0.369 -0.409 1.003 -0.441 1.412 -0.073 l 5.748 5.18 c 1.257 1.132 1.978 2.752 1.978 4.444 v 3.777 C 34.868 83.755 34.42 84.202 33.868 84.202 z" style="stroke: none; stroke-width: 1; stroke-dasharray: none; stroke-linecap: butt; stroke-linejoin: miter; stroke-miterlimit: 10; fill: rgb(0,0,0); fill-rule: nonzero; opacity: 1;" transform=" matrix(1 0 0 1 0 0) " stroke-linecap="round" />
    <path d="M 56.133 84.202 c -0.553 0 -1 -0.447 -1 -1 v -3.777 c 0 -1.693 0.721 -3.313 1.978 -4.444 l 5.748 -5.18 c 0.407 -0.369 1.042 -0.339 1.412 0.074 c 0.369 0.41 0.337 1.042 -0.074 1.412 l -5.748 5.18 c -0.836 0.753 -1.315 1.831 -1.315 2.958 v 3.777 C 57.133 83.755 56.686 84.202 56.133 84.202 z" style="stroke: none; stroke-width: 1; stroke-dasharray: none; stroke-linecap: butt; stroke-linejoin: miter; stroke-miterlimit: 10; fill: rgb(0,0,0); fill-rule: nonzero; opacity: 1;" transform=" matrix(1 0 0 1 0 0) " stroke-linecap="round" />
    <path d="M 57.745 43.619 c -0.553 0 -1 -0.448 -1 -1 c 0 -6.477 -5.269 -11.746 -11.745 -11.746 s -11.745 5.269 -11.745 11.746 c 0 0.552 -0.448 1 -1 1 s -1 -0.448 -1 -1 c 0 -7.58 6.166 -13.746 13.745 -13.746 s 13.745 6.166 13.745 13.746 C 58.745 43.171 58.298 43.619 57.745 43.619 z" style="stroke: none; stroke-width: 1; stroke-dasharray: none; stroke-linecap: butt; stroke-linejoin: miter; stroke-miterlimit: 10; fill: rgb(0,0,0); fill-rule: nonzero; opacity: 1;" transform=" matrix(1 0 0 1 0 0) " stroke-linecap="round" />
    <path d="M 45 61.938 c -3.787 0 -7.47 -2.839 -9.383 -7.232 c -0.22 -0.507 0.011 -1.096 0.518 -1.316 c 0.508 -0.221 1.096 0.012 1.316 0.518 c 1.595 3.664 4.559 6.031 7.549 6.031 s 5.954 -2.367 7.549 -6.03 c 0.22 -0.505 0.808 -0.74 1.316 -0.518 c 0.506 0.221 0.738 0.81 0.518 1.316 C 52.47 59.099 48.786 61.938 45 61.938 z" style="stroke: none; stroke-width: 1; stroke-dasharray: none; stroke-linecap: butt; stroke-linejoin: miter; stroke-miterlimit: 10; fill: rgb(0,0,0); fill-rule: nonzero; opacity: 1;" transform=" matrix(1 0 0 1 0 0) " stroke-linecap="round" />
    <path d="M 54.565 45.757 c -0.553 0 -1 -0.448 -1 -1 V 43.6 c -2.188 -0.158 -3.929 -0.818 -5.715 -2.158 c -3.158 1.421 -6.654 2.09 -11.416 2.185 v 1.131 c 0 0.552 -0.448 1 -1 1 s -1 -0.448 -1 -1 v -2.12 c 0 -0.551 0.446 -0.998 0.997 -1 c 5.258 -0.017 8.881 -0.694 12.116 -2.262 c 0.349 -0.169 0.768 -0.122 1.068 0.125 c 1.558 1.27 3.166 2.119 5.956 2.137 c 0.55 0.003 0.994 0.45 0.994 1 v 2.12 C 55.565 45.309 55.118 45.757 54.565 45.757 z" style="stroke: none; stroke-width: 1; stroke-dasharray: none; stroke-linecap: butt; stroke-linejoin: miter; stroke-miterlimit: 10; fill: rgb(0,0,0); fill-rule: nonzero; opacity: 1;" transform=" matrix(1 0 0 1 0 0) " stroke-linecap="round" />
    <path d="M 57.426 46.471 c -0.074 0 -0.149 -0.008 -0.225 -0.025 c -0.538 -0.123 -0.874 -0.66 -0.751 -1.198 c 0.195 -0.855 0.295 -1.739 0.295 -2.628 c 0 -0.552 0.447 -1 1 -1 s 1 0.448 1 1 c 0 1.04 -0.116 2.074 -0.346 3.075 C 58.293 46.157 57.882 46.471 57.426 46.471 z" style="stroke: none; stroke-width: 1; stroke-dasharray: none; stroke-linecap: butt; stroke-linejoin: miter; stroke-miterlimit: 10; fill: rgb(0,0,0); fill-rule: nonzero; opacity: 1;" transform=" matrix(1 0 0 1 0 0) " stroke-linecap="round" />
    <path d="M 32.574 46.473 c -0.456 0 -0.868 -0.314 -0.974 -0.778 c -0.229 -1.004 -0.345 -2.039 -0.345 -3.076 c 0 -0.552 0.448 -1 1 -1 s 1 0.448 1 1 c 0 0.887 0.099 1.772 0.295 2.63 c 0.123 0.539 -0.214 1.075 -0.752 1.198 C 32.723 46.464 32.648 46.473 32.574 46.473 z" style="stroke: none; stroke-width: 1; stroke-dasharray: none; stroke-linecap: butt; stroke-linejoin: miter; stroke-miterlimit: 10; fill: rgb(0,0,0); fill-rule: nonzero; opacity: 1;" transform=" matrix(1 0 0 1 0 0) " stroke-linecap="round" />
    <path d="M 44.958 58.371 c -1.037 0 -2.059 -0.232 -3.06 -0.697 c -0.501 -0.233 -0.718 -0.828 -0.485 -1.329 c 0.232 -0.501 0.826 -0.72 1.328 -0.485 c 1.474 0.686 2.958 0.682 4.538 -0.009 c 0.506 -0.223 1.096 0.01 1.316 0.516 c 0.222 0.506 -0.01 1.096 -0.516 1.316 C 47.03 58.142 45.987 58.371 44.958 58.371 z" style="stroke: none; stroke-width: 1; stroke-dasharray: none; stroke-linecap: butt; stroke-linejoin: miter; stroke-miterlimit: 10; fill: rgb(0,0,0); fill-rule: nonzero; opacity: 1;" transform=" matrix(1 0 0 1 0 0) " stroke-linecap="round" />
    <path d="M 49.783 31.803 c -0.496 0 -0.927 -0.368 -0.991 -0.873 c -0.243 -1.899 -1.873 -3.331 -3.792 -3.331 c -1.918 0 -3.549 1.432 -3.792 3.331 c -0.07 0.547 -0.571 0.937 -1.119 0.864 c -0.548 -0.07 -0.935 -0.571 -0.864 -1.119 c 0.371 -2.894 2.854 -5.076 5.776 -5.076 s 5.405 2.183 5.776 5.077 c 0.07 0.548 -0.317 1.049 -0.865 1.119 C 49.868 31.8 49.825 31.803 49.783 31.803 z" style="stroke: none; stroke-width: 1; stroke-dasharray: none; stroke-linecap: butt; stroke-linejoin: miter; stroke-miterlimit: 10; fill: rgb(0,0,0); fill-rule: nonzero; opacity: 1;" transform=" matrix(1 0 0 1 0 0) " stroke-linecap="round" />
</g>
</svg>