<svg width="164px" height="42px" viewBox="0 0 164 42" version="1.1" xmlns="http://www.w3.org/2000/svg" xmlns:xlink="http://www.w3.org/1999/xlink">
  <title>Logo VrScuola</title>
  <desc>VrScuola</desc>
  <defs>
    <polygon id="path-1" points="0.062625 21 17.1285032 21 17.1285032 0.00285 0.062625 0.00285"></polygon>
  </defs>
  <rect x="0" y="0" width="164" height="42" fill="rgba(8, 6, 9, 0.9)" />
  <g fill="#4caf50">
    <use xlink:href="#path-1"></use>
    <rect x="23" y="0" width="23" height="21"></rect>
    <path d="M47,21h17V0.003H47V21z"></path>
    <rect x="71" y="0" width="22.939" height="21"></rect>
    <path d="M94.939,21h16.939V0.003H94.939V21z"></path>
    <rect x="118.878" y="0" width="22.942" height="21"></rect>
  </g>
  <g fill="#65a267">
    <rect x="0" y="21" width="22.939" height="21"></rect>
    <rect x="47" y="21" width="22.939" height="21"></rect>
    <path d="M94.939,42h16.939V21.003H94.939V42z"></path>
    <rect x="118.878" y="21" width="22.942" height="21"></rect>
  </g>
  <rect x="23" y="21" width="23" height="21" fill="yellowgreen"></rect>
</svg>